<?xml version="1.0" encoding="utf-8"?>
<!-- Generator: Adobe Illustrator 17.0.0, SVG Export Plug-In . SVG Version: 6.00 Build 0)  -->
<!DOCTYPE svg PUBLIC "-//W3C//DTD SVG 1.1//EN" "http://www.w3.org/Graphics/SVG/1.1/DTD/svg11.dtd">
<svg version="1.1" id="Warstwa_1" xmlns="http://www.w3.org/2000/svg" xmlns:xlink="http://www.w3.org/1999/xlink" x="0px" y="0px"
	 width="90px" height="60px" viewBox="0 0 90 60" enable-background="new 0 0 90 60" xml:space="preserve">
<g>
	<path fill="#FFFFFF" d="M80.026,41.648c3.287,5.016,6.549,9.995,9.974,15.222c-3.116,0-5.926,0.022-8.734-0.029
		c-0.327-0.006-0.748-0.341-0.956-0.641c-3.496-5.036-6.965-10.091-10.538-15.284c1.793-1.836,3.586-3.652,5.357-5.489
		c2.538-2.633,4.71-5.433,5.288-9.243c1.074-7.083-3.833-13.972-10.978-15.211c-7.32-1.269-14.38,3.614-15.62,10.804
		c-0.765,4.431,0.404,8.299,3.414,11.614c2.351,2.59,4.726,5.159,7.365,8.037c-3.518,0-6.679,0.008-9.84-0.017
		c-0.22-0.002-0.458-0.219-0.655-0.377c-6.888-5.535-9.796-15.038-7.115-23.231c2.79-8.525,10.355-14.376,19.475-14.552
		C75.347,3.081,82.115,7.091,85.984,15.1c3.864,7.999,2.729,15.684-2.813,22.661c-0.945,1.19-1.968,2.317-2.95,3.477
		C80.155,41.315,80.13,41.425,80.026,41.648z"/>
	<path fill="#FFFFFF" d="M6.022,16.167c-1.755-1.414-3.613-2.911-5.457-4.396c4.123-6.863,12.343-9.679,19.598-6.807
		c7.07,2.799,9.501,11.95,4.514,18.128c-2.205,2.732-5.147,4.882-7.828,7.211c-1.606,1.395-3.355,2.624-4.96,4.257
		c2.586,0,5.171,0,7.757,0c2.565,0,5.13,0,7.82,0c0,2.367,0,4.637,0,7.016c-9.135,0-18.219,0-27.465,0c0-1.992,0-4.629,0-6.55
		c0.014-0.29,10.531-8.516,15.21-12.476c1.023-0.866,1.914-1.955,2.649-3.081c1.449-2.218,1.268-5.158-0.248-6.73
		c-1.598-1.656-4.792-2.021-6.995-0.523C8.992,13.321,7.61,14.78,6.022,16.167z"/>
	<path fill="#FFFFFF" d="M33.789,15.162c2.415,0,4.755,0,7.237,0c0,8.771,0,17.535,0,26.411c-2.375,0-4.753,0-7.237,0
		C33.789,32.81,33.789,24.084,33.789,15.162z"/>
	<path fill="#FFFFFF" d="M33.788,3.125c2.47,0,4.811,0,7.265,0c0,2.169,0,4.282,0,6.511c-2.408,0-4.783,0-7.265,0
		C33.788,7.507,33.788,5.391,33.788,3.125z"/>
</g>
</svg>
